<svg width="180" height="26" viewBox="0 0 180 26" fill="none" xmlns="http://www.w3.org/2000/svg">
<path d="M0.497159 3.48438V0.272727H19.6342V3.48438H11.919V25H8.20028V3.48438H0.497159ZM27.1834 13.9886V25H23.5733V0.272727H27.1351V9.47301H27.3645C27.7992 8.4749 28.4632 7.68205 29.3567 7.09446C30.2502 6.50687 31.4173 6.21307 32.8581 6.21307C34.1299 6.21307 35.2407 6.47467 36.1905 6.99787C37.1484 7.52107 37.8889 8.30185 38.4121 9.3402C38.9434 10.3705 39.209 11.6584 39.209 13.2038V25H35.5989V13.6385C35.5989 12.2782 35.2488 11.2237 34.5485 10.4751C33.8482 9.71851 32.8742 9.3402 31.6266 9.3402C30.7734 9.3402 30.0087 9.52131 29.3326 9.88352C28.6645 10.2457 28.1373 10.777 27.7509 11.4773C27.3726 12.1695 27.1834 13.0066 27.1834 13.9886ZM52.0194 25.3743C50.1922 25.3743 48.6185 24.9839 47.2985 24.2031C45.9864 23.4143 44.9722 22.3075 44.2559 20.8828C43.5475 19.45 43.1934 17.7718 43.1934 15.848C43.1934 13.9484 43.5475 12.2741 44.2559 10.8253C44.9722 9.37642 45.9703 8.2455 47.2502 7.43253C48.5381 6.61955 50.0433 6.21307 51.7658 6.21307C52.8122 6.21307 53.8264 6.38613 54.8084 6.73224C55.7904 7.07836 56.6718 7.62169 57.4526 8.36222C58.2334 9.10275 58.8491 10.0646 59.2999 11.2479C59.7507 12.4231 59.976 13.8518 59.976 15.5341V16.8139H45.2338V14.1094H56.4384C56.4384 13.1596 56.2452 12.3184 55.8588 11.5859C55.4725 10.8454 54.9292 10.2618 54.2289 9.83523C53.5366 9.40862 52.7237 9.19531 51.79 9.19531C50.7757 9.19531 49.8903 9.44484 49.1337 9.94389C48.3851 10.4349 47.8056 11.0788 47.3951 11.8757C46.9926 12.6645 46.7914 13.5218 46.7914 14.4474V16.5604C46.7914 17.8 47.0087 18.8544 47.4434 19.7237C47.8861 20.593 48.5018 21.2571 49.2907 21.7159C50.0795 22.1667 51.0011 22.392 52.0556 22.392C52.7398 22.392 53.3636 22.2955 53.927 22.1023C54.4905 21.901 54.9775 21.6032 55.388 21.2088C55.7985 20.8144 56.1124 20.3274 56.3297 19.7479L59.7466 20.3636C59.473 21.3698 58.9819 22.2512 58.2736 23.0078C57.5733 23.7564 56.6919 24.34 55.6294 24.7585C54.575 25.169 53.3716 25.3743 52.0194 25.3743ZM63.9815 25V6.45454H67.4467V9.47301H67.6761C68.0625 8.45076 68.6944 7.65388 69.5717 7.08239C70.4491 6.50284 71.4995 6.21307 72.723 6.21307C73.9626 6.21307 75.0009 6.50284 75.8381 7.08239C76.6832 7.66193 77.3071 8.45881 77.7095 9.47301H77.9027C78.3454 8.48295 79.0497 7.69413 80.0156 7.10653C80.9815 6.51089 82.1326 6.21307 83.4688 6.21307C85.151 6.21307 86.5234 6.74029 87.5859 7.79474C88.6565 8.84919 89.1918 10.4389 89.1918 12.5639V25H85.5817V12.902C85.5817 11.6463 85.2396 10.7367 84.5554 10.1733C83.8712 9.60985 83.0542 9.32812 82.1044 9.32812C80.9292 9.32812 80.0156 9.69034 79.3636 10.4148C78.7116 11.1312 78.3857 12.0528 78.3857 13.1797V25H74.7876V12.6726C74.7876 11.6664 74.4737 10.8575 73.8459 10.2457C73.218 9.634 72.401 9.32812 71.3949 9.32812C70.7107 9.32812 70.0788 9.50923 69.4993 9.87145C68.9278 10.2256 68.465 10.7206 68.1108 11.3565C67.7647 11.9924 67.5916 12.7289 67.5916 13.5661V25H63.9815ZM102.023 25.3743C100.196 25.3743 98.6225 24.9839 97.3024 24.2031C95.9904 23.4143 94.9761 22.3075 94.2598 20.8828C93.5514 19.45 93.1973 17.7718 93.1973 15.848C93.1973 13.9484 93.5514 12.2741 94.2598 10.8253C94.9761 9.37642 95.9743 8.2455 97.2541 7.43253C98.542 6.61955 100.047 6.21307 101.77 6.21307C102.816 6.21307 103.83 6.38613 104.812 6.73224C105.794 7.07836 106.676 7.62169 107.456 8.36222C108.237 9.10275 108.853 10.0646 109.304 11.2479C109.755 12.4231 109.98 13.8518 109.98 15.5341V16.8139H95.2377V14.1094H106.442C106.442 13.1596 106.249 12.3184 105.863 11.5859C105.476 10.8454 104.933 10.2618 104.233 9.83523C103.541 9.40862 102.728 9.19531 101.794 9.19531C100.78 9.19531 99.8942 9.44484 99.1376 9.94389C98.389 10.4349 97.8095 11.0788 97.399 11.8757C96.9965 12.6645 96.7953 13.5218 96.7953 14.4474V16.5604C96.7953 17.8 97.0126 18.8544 97.4473 19.7237C97.89 20.593 98.5057 21.2571 99.2946 21.7159C100.083 22.1667 101.005 22.392 102.059 22.392C102.744 22.392 103.367 22.2955 103.931 22.1023C104.494 21.901 104.981 21.6032 105.392 21.2088C105.802 20.8144 106.116 20.3274 106.334 19.7479L109.751 20.3636C109.477 21.3698 108.986 22.2512 108.278 23.0078C107.577 23.7564 106.696 24.34 105.633 24.7585C104.579 25.169 103.376 25.3743 102.023 25.3743ZM114.275 25V0.272727H117.885V9.46094H118.103C118.312 9.07457 118.614 8.62784 119.008 8.12074C119.403 7.61364 119.95 7.17093 120.65 6.79261C121.35 6.40625 122.276 6.21307 123.427 6.21307C124.924 6.21307 126.261 6.59138 127.436 7.34801C128.611 8.10464 129.533 9.19531 130.201 10.62C130.877 12.0447 131.215 13.7592 131.215 15.7635C131.215 17.7678 130.881 19.4863 130.213 20.919C129.545 22.3437 128.627 23.4425 127.46 24.2152C126.293 24.9799 124.961 25.3622 123.463 25.3622C122.337 25.3622 121.415 25.1731 120.699 24.7947C119.99 24.4164 119.435 23.9737 119.032 23.4666C118.63 22.9595 118.32 22.5088 118.103 22.1143H117.801V25H114.275ZM117.813 15.7273C117.813 17.0312 118.002 18.1742 118.38 19.1562C118.759 20.1383 119.306 20.907 120.022 21.4624C120.739 22.0097 121.616 22.2834 122.654 22.2834C123.733 22.2834 124.635 21.9976 125.359 21.4261C126.083 20.8466 126.631 20.0618 127.001 19.0717C127.379 18.0817 127.569 16.9669 127.569 15.7273C127.569 14.5038 127.383 13.4051 127.013 12.4311C126.651 11.4571 126.104 10.6884 125.371 10.125C124.647 9.56155 123.741 9.27983 122.654 9.27983C121.608 9.27983 120.723 9.54948 119.998 10.0888C119.282 10.6281 118.739 11.3807 118.368 12.3466C117.998 13.3125 117.813 14.4394 117.813 15.7273ZM140.666 25.4105C139.49 25.4105 138.428 25.1932 137.478 24.7585C136.528 24.3158 135.776 23.6759 135.22 22.8388C134.673 22.0017 134.399 20.9754 134.399 19.7599C134.399 18.7135 134.601 17.8523 135.003 17.1761C135.405 16.5 135.949 15.9647 136.633 15.5703C137.317 15.1759 138.082 14.8781 138.927 14.6768C139.772 14.4756 140.633 14.3227 141.511 14.218C142.622 14.0893 143.523 13.9846 144.215 13.9041C144.908 13.8156 145.411 13.6747 145.725 13.4815C146.039 13.2884 146.195 12.9744 146.195 12.5398V12.4553C146.195 11.4008 145.898 10.5838 145.302 10.0043C144.714 9.42472 143.837 9.13494 142.67 9.13494C141.454 9.13494 140.497 9.40459 139.796 9.94389C139.104 10.4751 138.625 11.0668 138.36 11.7188L134.967 10.946C135.369 9.81913 135.957 8.90956 136.73 8.21733C137.51 7.51704 138.408 7.00994 139.422 6.69602C140.436 6.37405 141.503 6.21307 142.622 6.21307C143.362 6.21307 144.147 6.30161 144.976 6.47869C145.813 6.64773 146.594 6.96165 147.318 7.42045C148.051 7.87926 148.651 8.53527 149.117 9.38849C149.584 10.2337 149.818 11.3324 149.818 12.6847V25H146.292V22.4645H146.147C145.914 22.9313 145.564 23.3902 145.097 23.8409C144.63 24.2917 144.03 24.666 143.298 24.9638C142.565 25.2616 141.688 25.4105 140.666 25.4105ZM141.45 22.5128C142.449 22.5128 143.302 22.3156 144.01 21.9212C144.727 21.5268 145.27 21.0116 145.64 20.3757C146.018 19.7318 146.208 19.0436 146.208 18.3111V15.9205C146.079 16.0492 145.829 16.17 145.459 16.2827C145.097 16.3873 144.682 16.4799 144.215 16.5604C143.749 16.6328 143.294 16.7012 142.851 16.7656C142.408 16.822 142.038 16.8703 141.74 16.9105C141.04 16.9991 140.4 17.148 139.82 17.3572C139.249 17.5665 138.79 17.8684 138.444 18.2628C138.106 18.6491 137.937 19.1643 137.937 19.8082C137.937 20.7017 138.267 21.3778 138.927 21.8366C139.587 22.2874 140.428 22.5128 141.45 22.5128ZM166.374 17.3089V6.45454H169.996V25H166.446V21.7884H166.253C165.827 22.7784 165.142 23.6035 164.201 24.2635C163.267 24.9155 162.104 25.2415 160.711 25.2415C159.52 25.2415 158.466 24.9799 157.548 24.4567C156.638 23.9254 155.922 23.1406 155.399 22.1023C154.884 21.0639 154.626 19.7801 154.626 18.2507V6.45454H158.236V17.8161C158.236 19.0798 158.586 20.0859 159.287 20.8345C159.987 21.5831 160.896 21.9574 162.015 21.9574C162.691 21.9574 163.364 21.7884 164.032 21.4503C164.708 21.1122 165.267 20.6011 165.71 19.9169C166.161 19.2327 166.382 18.3634 166.374 17.3089ZM177.225 25.2294C176.565 25.2294 175.998 24.996 175.523 24.5291C175.048 24.0542 174.811 23.4827 174.811 22.8146C174.811 22.1546 175.048 21.5911 175.523 21.1243C175.998 20.6494 176.565 20.4119 177.225 20.4119C177.885 20.4119 178.453 20.6494 178.928 21.1243C179.403 21.5911 179.64 22.1546 179.64 22.8146C179.64 23.2573 179.527 23.6638 179.302 24.0341C179.085 24.3963 178.795 24.6861 178.433 24.9034C178.07 25.1207 177.668 25.2294 177.225 25.2294Z" fill="white"/>
</svg>
